<mxfile host="Electron" modified="2024-02-14T11:25:10.084Z" agent="Mozilla/5.0 (Windows NT 10.0; Win64; x64) AppleWebKit/537.36 (KHTML, like Gecko) draw.io/23.0.2 Chrome/120.0.6099.109 Electron/28.1.0 Safari/537.36" etag="lRxpzWppLigdfg1ax0qf" version="23.0.2" type="device">
  <diagram name="Page-1" id="eKSVaS2r4cMHSusTUW-7">
    <mxGraphModel dx="1816" dy="1751" grid="1" gridSize="10" guides="1" tooltips="1" connect="1" arrows="1" fold="1" page="1" pageScale="1" pageWidth="827" pageHeight="1169" math="0" shadow="0">
      <root>
        <mxCell id="0" />
        <mxCell id="1" parent="0" />
        <mxCell id="KWsLm81wSz9d_eZDRfNq-11" style="edgeStyle=orthogonalEdgeStyle;rounded=0;orthogonalLoop=1;jettySize=auto;html=1;entryX=0.5;entryY=0;entryDx=0;entryDy=0;fillColor=none;" parent="1" source="KWsLm81wSz9d_eZDRfNq-1" target="KWsLm81wSz9d_eZDRfNq-2" edge="1">
          <mxGeometry relative="1" as="geometry" />
        </mxCell>
        <mxCell id="Wd4Ua2FaX0Mv2LaocIGq-39" style="edgeStyle=orthogonalEdgeStyle;rounded=0;orthogonalLoop=1;jettySize=auto;html=1;fillColor=#a20025;strokeColor=#6F0000;" parent="1" source="KWsLm81wSz9d_eZDRfNq-1" target="Wd4Ua2FaX0Mv2LaocIGq-37" edge="1">
          <mxGeometry relative="1" as="geometry" />
        </mxCell>
        <mxCell id="KWsLm81wSz9d_eZDRfNq-1" value="Get and save App path" style="rounded=0;whiteSpace=wrap;html=1;" parent="1" vertex="1">
          <mxGeometry x="110" y="-10" width="160" height="30" as="geometry" />
        </mxCell>
        <mxCell id="KWsLm81wSz9d_eZDRfNq-12" style="edgeStyle=orthogonalEdgeStyle;rounded=0;orthogonalLoop=1;jettySize=auto;html=1;entryX=0.5;entryY=0;entryDx=0;entryDy=0;fillColor=none;" parent="1" source="KWsLm81wSz9d_eZDRfNq-2" target="KWsLm81wSz9d_eZDRfNq-4" edge="1">
          <mxGeometry relative="1" as="geometry" />
        </mxCell>
        <mxCell id="Wd4Ua2FaX0Mv2LaocIGq-40" style="edgeStyle=orthogonalEdgeStyle;rounded=0;orthogonalLoop=1;jettySize=auto;html=1;fillColor=#a20025;strokeColor=#6F0000;" parent="1" source="KWsLm81wSz9d_eZDRfNq-2" target="Wd4Ua2FaX0Mv2LaocIGq-37" edge="1">
          <mxGeometry relative="1" as="geometry" />
        </mxCell>
        <mxCell id="KWsLm81wSz9d_eZDRfNq-2" value="Load App informations" style="rounded=0;whiteSpace=wrap;html=1;" parent="1" vertex="1">
          <mxGeometry x="110" y="40" width="160" height="30" as="geometry" />
        </mxCell>
        <mxCell id="KWsLm81wSz9d_eZDRfNq-36" style="edgeStyle=orthogonalEdgeStyle;rounded=0;orthogonalLoop=1;jettySize=auto;html=1;entryX=0.5;entryY=0;entryDx=0;entryDy=0;" parent="1" source="KWsLm81wSz9d_eZDRfNq-4" target="KWsLm81wSz9d_eZDRfNq-33" edge="1">
          <mxGeometry relative="1" as="geometry" />
        </mxCell>
        <mxCell id="Wd4Ua2FaX0Mv2LaocIGq-41" style="edgeStyle=orthogonalEdgeStyle;rounded=0;orthogonalLoop=1;jettySize=auto;html=1;fillColor=#a20025;strokeColor=#6F0000;" parent="1" source="KWsLm81wSz9d_eZDRfNq-4" target="Wd4Ua2FaX0Mv2LaocIGq-37" edge="1">
          <mxGeometry relative="1" as="geometry" />
        </mxCell>
        <mxCell id="KWsLm81wSz9d_eZDRfNq-4" value="Get client version and save it" style="rounded=0;whiteSpace=wrap;html=1;" parent="1" vertex="1">
          <mxGeometry x="110" y="90" width="160" height="30" as="geometry" />
        </mxCell>
        <mxCell id="Wd4Ua2FaX0Mv2LaocIGq-11" style="edgeStyle=orthogonalEdgeStyle;rounded=0;orthogonalLoop=1;jettySize=auto;html=1;" parent="1" source="KWsLm81wSz9d_eZDRfNq-7" target="Wd4Ua2FaX0Mv2LaocIGq-10" edge="1">
          <mxGeometry relative="1" as="geometry" />
        </mxCell>
        <mxCell id="Wd4Ua2FaX0Mv2LaocIGq-43" style="edgeStyle=orthogonalEdgeStyle;rounded=0;orthogonalLoop=1;jettySize=auto;html=1;fillColor=#a20025;strokeColor=#6F0000;" parent="1" source="KWsLm81wSz9d_eZDRfNq-7" target="Wd4Ua2FaX0Mv2LaocIGq-37" edge="1">
          <mxGeometry relative="1" as="geometry" />
        </mxCell>
        <mxCell id="KWsLm81wSz9d_eZDRfNq-7" value="Create main window" style="rounded=0;whiteSpace=wrap;html=1;" parent="1" vertex="1">
          <mxGeometry x="110" y="190" width="160" height="30" as="geometry" />
        </mxCell>
        <mxCell id="KWsLm81wSz9d_eZDRfNq-40" style="edgeStyle=orthogonalEdgeStyle;rounded=0;orthogonalLoop=1;jettySize=auto;html=1;entryX=0.5;entryY=0;entryDx=0;entryDy=0;" parent="1" source="KWsLm81wSz9d_eZDRfNq-33" target="KWsLm81wSz9d_eZDRfNq-7" edge="1">
          <mxGeometry relative="1" as="geometry" />
        </mxCell>
        <mxCell id="Wd4Ua2FaX0Mv2LaocIGq-42" style="edgeStyle=orthogonalEdgeStyle;rounded=0;orthogonalLoop=1;jettySize=auto;html=1;fillColor=#a20025;strokeColor=#6F0000;" parent="1" source="KWsLm81wSz9d_eZDRfNq-33" target="Wd4Ua2FaX0Mv2LaocIGq-37" edge="1">
          <mxGeometry relative="1" as="geometry" />
        </mxCell>
        <mxCell id="KWsLm81wSz9d_eZDRfNq-33" value="Send App informations to the front" style="rounded=0;whiteSpace=wrap;html=1;" parent="1" vertex="1">
          <mxGeometry x="110" y="140" width="160" height="30" as="geometry" />
        </mxCell>
        <mxCell id="qcdIiWinCXF8RQf-NoBJ-41" style="edgeStyle=orthogonalEdgeStyle;rounded=0;orthogonalLoop=1;jettySize=auto;html=1;" edge="1" parent="1" source="KWsLm81wSz9d_eZDRfNq-56" target="Wd4Ua2FaX0Mv2LaocIGq-47">
          <mxGeometry relative="1" as="geometry" />
        </mxCell>
        <mxCell id="qcdIiWinCXF8RQf-NoBJ-42" style="edgeStyle=orthogonalEdgeStyle;rounded=0;orthogonalLoop=1;jettySize=auto;html=1;" edge="1" parent="1" source="KWsLm81wSz9d_eZDRfNq-56" target="qcdIiWinCXF8RQf-NoBJ-17">
          <mxGeometry relative="1" as="geometry" />
        </mxCell>
        <mxCell id="KWsLm81wSz9d_eZDRfNq-56" value="First time ?" style="rhombus;whiteSpace=wrap;html=1;" parent="1" vertex="1">
          <mxGeometry x="125" y="470" width="130" height="130" as="geometry" />
        </mxCell>
        <mxCell id="Wd4Ua2FaX0Mv2LaocIGq-62" style="edgeStyle=orthogonalEdgeStyle;rounded=0;orthogonalLoop=1;jettySize=auto;html=1;" parent="1" source="KWsLm81wSz9d_eZDRfNq-67" target="KWsLm81wSz9d_eZDRfNq-75" edge="1">
          <mxGeometry relative="1" as="geometry" />
        </mxCell>
        <mxCell id="qcdIiWinCXF8RQf-NoBJ-45" style="edgeStyle=orthogonalEdgeStyle;rounded=0;orthogonalLoop=1;jettySize=auto;html=1;entryX=0;entryY=0.5;entryDx=0;entryDy=0;" edge="1" parent="1" source="KWsLm81wSz9d_eZDRfNq-67" target="Wd4Ua2FaX0Mv2LaocIGq-50">
          <mxGeometry relative="1" as="geometry">
            <Array as="points">
              <mxPoint x="70" y="1330" />
              <mxPoint x="70" y="1060" />
            </Array>
          </mxGeometry>
        </mxCell>
        <mxCell id="KWsLm81wSz9d_eZDRfNq-67" value="Is oAuth2 token valid?" style="rhombus;whiteSpace=wrap;html=1;" parent="1" vertex="1">
          <mxGeometry x="120" y="1280" width="140" height="100" as="geometry" />
        </mxCell>
        <mxCell id="Wd4Ua2FaX0Mv2LaocIGq-63" style="edgeStyle=orthogonalEdgeStyle;rounded=0;orthogonalLoop=1;jettySize=auto;html=1;fillColor=#a20025;strokeColor=#6F0000;" parent="1" source="KWsLm81wSz9d_eZDRfNq-75" target="Wd4Ua2FaX0Mv2LaocIGq-37" edge="1">
          <mxGeometry relative="1" as="geometry" />
        </mxCell>
        <mxCell id="qcdIiWinCXF8RQf-NoBJ-47" style="edgeStyle=orthogonalEdgeStyle;rounded=0;orthogonalLoop=1;jettySize=auto;html=1;" edge="1" parent="1" source="KWsLm81wSz9d_eZDRfNq-75" target="qcdIiWinCXF8RQf-NoBJ-46">
          <mxGeometry relative="1" as="geometry" />
        </mxCell>
        <mxCell id="KWsLm81wSz9d_eZDRfNq-75" value="Is&amp;nbsp;Gosumemory found?" style="rhombus;whiteSpace=wrap;html=1;" parent="1" vertex="1">
          <mxGeometry x="120" y="1400" width="140" height="90" as="geometry" />
        </mxCell>
        <mxCell id="Wd4Ua2FaX0Mv2LaocIGq-45" style="edgeStyle=orthogonalEdgeStyle;rounded=0;orthogonalLoop=1;jettySize=auto;html=1;fillColor=#a20025;strokeColor=#6F0000;" parent="1" source="KWsLm81wSz9d_eZDRfNq-112" target="Wd4Ua2FaX0Mv2LaocIGq-37" edge="1">
          <mxGeometry relative="1" as="geometry" />
        </mxCell>
        <mxCell id="qcdIiWinCXF8RQf-NoBJ-40" style="edgeStyle=orthogonalEdgeStyle;rounded=0;orthogonalLoop=1;jettySize=auto;html=1;" edge="1" parent="1" source="KWsLm81wSz9d_eZDRfNq-112" target="KWsLm81wSz9d_eZDRfNq-56">
          <mxGeometry relative="1" as="geometry" />
        </mxCell>
        <mxCell id="KWsLm81wSz9d_eZDRfNq-112" value="Get client IP" style="rounded=0;whiteSpace=wrap;html=1;" parent="1" vertex="1">
          <mxGeometry x="130" y="400" width="120" height="30" as="geometry" />
        </mxCell>
        <mxCell id="Wd4Ua2FaX0Mv2LaocIGq-2" style="edgeStyle=orthogonalEdgeStyle;rounded=0;orthogonalLoop=1;jettySize=auto;html=1;" parent="1" source="Wd4Ua2FaX0Mv2LaocIGq-1" target="KWsLm81wSz9d_eZDRfNq-1" edge="1">
          <mxGeometry relative="1" as="geometry" />
        </mxCell>
        <mxCell id="Wd4Ua2FaX0Mv2LaocIGq-1" value="Start Application" style="shape=process;whiteSpace=wrap;html=1;backgroundOutline=1;" parent="1" vertex="1">
          <mxGeometry x="130" y="-110" width="120" height="60" as="geometry" />
        </mxCell>
        <mxCell id="Wd4Ua2FaX0Mv2LaocIGq-3" value="Here, saving means setting the value in the presence.conf" style="text;html=1;strokeColor=none;fillColor=none;align=center;verticalAlign=middle;whiteSpace=wrap;rounded=0;" parent="1" vertex="1">
          <mxGeometry x="30" y="-90" width="60" height="30" as="geometry" />
        </mxCell>
        <mxCell id="Wd4Ua2FaX0Mv2LaocIGq-38" style="edgeStyle=orthogonalEdgeStyle;rounded=0;orthogonalLoop=1;jettySize=auto;html=1;fillColor=#a20025;strokeColor=#6F0000;" parent="1" source="Wd4Ua2FaX0Mv2LaocIGq-10" target="Wd4Ua2FaX0Mv2LaocIGq-37" edge="1">
          <mxGeometry relative="1" as="geometry" />
        </mxCell>
        <mxCell id="qcdIiWinCXF8RQf-NoBJ-35" style="edgeStyle=orthogonalEdgeStyle;rounded=0;orthogonalLoop=1;jettySize=auto;html=1;" edge="1" parent="1" source="Wd4Ua2FaX0Mv2LaocIGq-10" target="KWsLm81wSz9d_eZDRfNq-112">
          <mxGeometry relative="1" as="geometry" />
        </mxCell>
        <mxCell id="Wd4Ua2FaX0Mv2LaocIGq-10" value="Has Internet ?" style="rhombus;whiteSpace=wrap;html=1;" parent="1" vertex="1">
          <mxGeometry x="125" y="250" width="130" height="120" as="geometry" />
        </mxCell>
        <mxCell id="Wd4Ua2FaX0Mv2LaocIGq-34" style="edgeStyle=orthogonalEdgeStyle;rounded=0;orthogonalLoop=1;jettySize=auto;html=1;entryX=0;entryY=0.5;entryDx=0;entryDy=0;" parent="1" source="Wd4Ua2FaX0Mv2LaocIGq-13" target="Wd4Ua2FaX0Mv2LaocIGq-17" edge="1">
          <mxGeometry relative="1" as="geometry">
            <Array as="points">
              <mxPoint x="-690" y="630" />
            </Array>
          </mxGeometry>
        </mxCell>
        <mxCell id="Wd4Ua2FaX0Mv2LaocIGq-13" value="User closes App" style="shape=process;whiteSpace=wrap;html=1;backgroundOutline=1;" parent="1" vertex="1">
          <mxGeometry x="-750" y="481.25" width="120" height="60" as="geometry" />
        </mxCell>
        <mxCell id="Wd4Ua2FaX0Mv2LaocIGq-33" value="Error handler" style="swimlane;" parent="1" vertex="1">
          <mxGeometry x="-590" y="290" width="350" height="290" as="geometry" />
        </mxCell>
        <mxCell id="Wd4Ua2FaX0Mv2LaocIGq-26" value="Is error critical ?" style="rhombus;whiteSpace=wrap;html=1;" parent="Wd4Ua2FaX0Mv2LaocIGq-33" vertex="1">
          <mxGeometry x="25" y="182.51999999999998" width="150" height="80" as="geometry" />
        </mxCell>
        <mxCell id="Wd4Ua2FaX0Mv2LaocIGq-28" value="Show error message" style="rounded=0;whiteSpace=wrap;html=1;" parent="Wd4Ua2FaX0Mv2LaocIGq-33" vertex="1">
          <mxGeometry x="205" y="192.51999999999998" width="120" height="60" as="geometry" />
        </mxCell>
        <mxCell id="Wd4Ua2FaX0Mv2LaocIGq-29" style="edgeStyle=orthogonalEdgeStyle;rounded=0;orthogonalLoop=1;jettySize=auto;html=1;" parent="Wd4Ua2FaX0Mv2LaocIGq-33" source="Wd4Ua2FaX0Mv2LaocIGq-26" target="Wd4Ua2FaX0Mv2LaocIGq-28" edge="1">
          <mxGeometry relative="1" as="geometry">
            <Array as="points">
              <mxPoint x="235" y="222.54999999999995" />
            </Array>
          </mxGeometry>
        </mxCell>
        <mxCell id="Wd4Ua2FaX0Mv2LaocIGq-36" style="edgeStyle=orthogonalEdgeStyle;rounded=0;orthogonalLoop=1;jettySize=auto;html=1;" parent="Wd4Ua2FaX0Mv2LaocIGq-33" source="Wd4Ua2FaX0Mv2LaocIGq-35" target="Wd4Ua2FaX0Mv2LaocIGq-26" edge="1">
          <mxGeometry relative="1" as="geometry" />
        </mxCell>
        <mxCell id="Wd4Ua2FaX0Mv2LaocIGq-35" value="Error thrown" style="shape=process;whiteSpace=wrap;html=1;backgroundOutline=1;" parent="Wd4Ua2FaX0Mv2LaocIGq-33" vertex="1">
          <mxGeometry x="40" y="59.999999999999986" width="120" height="60" as="geometry" />
        </mxCell>
        <mxCell id="Wd4Ua2FaX0Mv2LaocIGq-17" value="Close Client" style="rounded=0;whiteSpace=wrap;html=1;" parent="1" vertex="1">
          <mxGeometry x="-550" y="600" width="120" height="60" as="geometry" />
        </mxCell>
        <mxCell id="Wd4Ua2FaX0Mv2LaocIGq-31" style="edgeStyle=orthogonalEdgeStyle;rounded=0;orthogonalLoop=1;jettySize=auto;html=1;" parent="1" source="Wd4Ua2FaX0Mv2LaocIGq-26" target="Wd4Ua2FaX0Mv2LaocIGq-17" edge="1">
          <mxGeometry relative="1" as="geometry" />
        </mxCell>
        <mxCell id="Wd4Ua2FaX0Mv2LaocIGq-37" value="throw critical error" style="rounded=0;whiteSpace=wrap;html=1;" parent="1" vertex="1">
          <mxGeometry x="-60" y="280" width="120" height="60" as="geometry" />
        </mxCell>
        <mxCell id="qcdIiWinCXF8RQf-NoBJ-34" style="edgeStyle=orthogonalEdgeStyle;rounded=0;orthogonalLoop=1;jettySize=auto;html=1;" edge="1" parent="1" source="Wd4Ua2FaX0Mv2LaocIGq-47" target="qcdIiWinCXF8RQf-NoBJ-24">
          <mxGeometry relative="1" as="geometry" />
        </mxCell>
        <mxCell id="Wd4Ua2FaX0Mv2LaocIGq-47" value="Register a new Client" style="rounded=0;whiteSpace=wrap;html=1;" parent="1" vertex="1">
          <mxGeometry x="130" y="650" width="120" height="60" as="geometry" />
        </mxCell>
        <mxCell id="Wd4Ua2FaX0Mv2LaocIGq-50" value="Ask user to authorize Bella Fiora" style="rounded=0;whiteSpace=wrap;html=1;" parent="1" vertex="1">
          <mxGeometry x="130" y="1030" width="120" height="60" as="geometry" />
        </mxCell>
        <mxCell id="Wd4Ua2FaX0Mv2LaocIGq-54" style="edgeStyle=orthogonalEdgeStyle;rounded=0;orthogonalLoop=1;jettySize=auto;html=1;" parent="1" source="Wd4Ua2FaX0Mv2LaocIGq-51" target="Wd4Ua2FaX0Mv2LaocIGq-53" edge="1">
          <mxGeometry relative="1" as="geometry" />
        </mxCell>
        <mxCell id="Wd4Ua2FaX0Mv2LaocIGq-51" value="User authorized Bella Fiored" style="shape=process;whiteSpace=wrap;html=1;backgroundOutline=1;" parent="1" vertex="1">
          <mxGeometry x="130" y="1120" width="120" height="60" as="geometry" />
        </mxCell>
        <mxCell id="Wd4Ua2FaX0Mv2LaocIGq-57" style="edgeStyle=orthogonalEdgeStyle;rounded=0;orthogonalLoop=1;jettySize=auto;html=1;" parent="1" source="Wd4Ua2FaX0Mv2LaocIGq-53" target="KWsLm81wSz9d_eZDRfNq-67" edge="1">
          <mxGeometry relative="1" as="geometry" />
        </mxCell>
        <mxCell id="Wd4Ua2FaX0Mv2LaocIGq-53" value="login osu!" style="rounded=0;whiteSpace=wrap;html=1;" parent="1" vertex="1">
          <mxGeometry x="130" y="1200" width="120" height="60" as="geometry" />
        </mxCell>
        <mxCell id="qcdIiWinCXF8RQf-NoBJ-12" style="edgeStyle=orthogonalEdgeStyle;rounded=0;orthogonalLoop=1;jettySize=auto;html=1;entryX=0;entryY=0.5;entryDx=0;entryDy=0;fillColor=#a20025;strokeColor=#6F0000;exitX=0;exitY=0.5;exitDx=0;exitDy=0;" edge="1" parent="1" source="qcdIiWinCXF8RQf-NoBJ-1" target="Wd4Ua2FaX0Mv2LaocIGq-37">
          <mxGeometry relative="1" as="geometry">
            <mxPoint x="-60" y="1469.3944827586208" as="sourcePoint" />
            <mxPoint x="-90" y="310.61" as="targetPoint" />
            <Array as="points">
              <mxPoint x="-80" y="1840" />
              <mxPoint x="-80" y="310" />
            </Array>
          </mxGeometry>
        </mxCell>
        <mxCell id="qcdIiWinCXF8RQf-NoBJ-1" value="Parse osu!.db and generate beatmaps.json" style="rounded=0;whiteSpace=wrap;html=1;" vertex="1" parent="1">
          <mxGeometry x="-30" y="1810" width="120" height="60" as="geometry" />
        </mxCell>
        <mxCell id="qcdIiWinCXF8RQf-NoBJ-5" style="edgeStyle=orthogonalEdgeStyle;rounded=0;orthogonalLoop=1;jettySize=auto;html=1;" edge="1" parent="1" source="qcdIiWinCXF8RQf-NoBJ-2" target="qcdIiWinCXF8RQf-NoBJ-4">
          <mxGeometry relative="1" as="geometry" />
        </mxCell>
        <mxCell id="qcdIiWinCXF8RQf-NoBJ-6" style="edgeStyle=orthogonalEdgeStyle;rounded=0;orthogonalLoop=1;jettySize=auto;html=1;" edge="1" parent="1" source="qcdIiWinCXF8RQf-NoBJ-2" target="qcdIiWinCXF8RQf-NoBJ-1">
          <mxGeometry relative="1" as="geometry" />
        </mxCell>
        <mxCell id="qcdIiWinCXF8RQf-NoBJ-2" value="Is beatmap.json present?" style="rhombus;whiteSpace=wrap;html=1;" vertex="1" parent="1">
          <mxGeometry x="110" y="1590" width="160" height="110" as="geometry" />
        </mxCell>
        <mxCell id="qcdIiWinCXF8RQf-NoBJ-8" style="edgeStyle=orthogonalEdgeStyle;rounded=0;orthogonalLoop=1;jettySize=auto;html=1;" edge="1" parent="1" source="qcdIiWinCXF8RQf-NoBJ-4" target="qcdIiWinCXF8RQf-NoBJ-7">
          <mxGeometry relative="1" as="geometry" />
        </mxCell>
        <mxCell id="qcdIiWinCXF8RQf-NoBJ-4" value="Update beatmaps.json with scores.db and scores.json" style="rounded=0;whiteSpace=wrap;html=1;" vertex="1" parent="1">
          <mxGeometry x="130" y="1730" width="120" height="60" as="geometry" />
        </mxCell>
        <mxCell id="qcdIiWinCXF8RQf-NoBJ-11" style="edgeStyle=orthogonalEdgeStyle;rounded=0;orthogonalLoop=1;jettySize=auto;html=1;entryX=1;entryY=0.5;entryDx=0;entryDy=0;" edge="1" parent="1" source="qcdIiWinCXF8RQf-NoBJ-7" target="qcdIiWinCXF8RQf-NoBJ-1">
          <mxGeometry relative="1" as="geometry" />
        </mxCell>
        <mxCell id="qcdIiWinCXF8RQf-NoBJ-51" style="edgeStyle=orthogonalEdgeStyle;rounded=0;orthogonalLoop=1;jettySize=auto;html=1;" edge="1" parent="1" source="qcdIiWinCXF8RQf-NoBJ-7" target="qcdIiWinCXF8RQf-NoBJ-50">
          <mxGeometry relative="1" as="geometry" />
        </mxCell>
        <mxCell id="qcdIiWinCXF8RQf-NoBJ-7" value="Success?" style="rhombus;whiteSpace=wrap;html=1;" vertex="1" parent="1">
          <mxGeometry x="130" y="1810" width="120" height="60" as="geometry" />
        </mxCell>
        <mxCell id="qcdIiWinCXF8RQf-NoBJ-19" style="edgeStyle=orthogonalEdgeStyle;rounded=0;orthogonalLoop=1;jettySize=auto;html=1;" edge="1" parent="1" source="qcdIiWinCXF8RQf-NoBJ-17" target="qcdIiWinCXF8RQf-NoBJ-18">
          <mxGeometry relative="1" as="geometry" />
        </mxCell>
        <mxCell id="qcdIiWinCXF8RQf-NoBJ-22" style="edgeStyle=orthogonalEdgeStyle;rounded=0;orthogonalLoop=1;jettySize=auto;html=1;fillColor=#a20025;strokeColor=#6F0000;" edge="1" parent="1" source="qcdIiWinCXF8RQf-NoBJ-17" target="qcdIiWinCXF8RQf-NoBJ-21">
          <mxGeometry relative="1" as="geometry" />
        </mxCell>
        <mxCell id="qcdIiWinCXF8RQf-NoBJ-17" value="Is App conform?" style="rhombus;whiteSpace=wrap;html=1;" vertex="1" parent="1">
          <mxGeometry x="280" y="760" width="110" height="110" as="geometry" />
        </mxCell>
        <mxCell id="qcdIiWinCXF8RQf-NoBJ-33" style="edgeStyle=orthogonalEdgeStyle;rounded=0;orthogonalLoop=1;jettySize=auto;html=1;entryX=1;entryY=0.5;entryDx=0;entryDy=0;" edge="1" parent="1">
          <mxGeometry relative="1" as="geometry">
            <mxPoint x="335" y="960" as="sourcePoint" />
            <mxPoint x="255" y="1230" as="targetPoint" />
            <Array as="points">
              <mxPoint x="335" y="1230" />
            </Array>
          </mxGeometry>
        </mxCell>
        <mxCell id="qcdIiWinCXF8RQf-NoBJ-18" value="Get player informations" style="rounded=0;whiteSpace=wrap;html=1;" vertex="1" parent="1">
          <mxGeometry x="275" y="900" width="120" height="60" as="geometry" />
        </mxCell>
        <mxCell id="qcdIiWinCXF8RQf-NoBJ-21" value="throw critical error" style="rounded=0;whiteSpace=wrap;html=1;" vertex="1" parent="1">
          <mxGeometry x="430" y="785" width="120" height="60" as="geometry" />
        </mxCell>
        <mxCell id="qcdIiWinCXF8RQf-NoBJ-25" style="edgeStyle=orthogonalEdgeStyle;rounded=0;orthogonalLoop=1;jettySize=auto;html=1;entryX=0.5;entryY=1;entryDx=0;entryDy=0;fillColor=#a20025;strokeColor=#6F0000;" edge="1" parent="1" source="qcdIiWinCXF8RQf-NoBJ-24" target="Wd4Ua2FaX0Mv2LaocIGq-37">
          <mxGeometry relative="1" as="geometry" />
        </mxCell>
        <mxCell id="qcdIiWinCXF8RQf-NoBJ-31" style="edgeStyle=orthogonalEdgeStyle;rounded=0;orthogonalLoop=1;jettySize=auto;html=1;" edge="1" parent="1" source="qcdIiWinCXF8RQf-NoBJ-24" target="qcdIiWinCXF8RQf-NoBJ-30">
          <mxGeometry relative="1" as="geometry" />
        </mxCell>
        <mxCell id="qcdIiWinCXF8RQf-NoBJ-24" value="Is App conform?" style="rhombus;whiteSpace=wrap;html=1;" vertex="1" parent="1">
          <mxGeometry x="135" y="760" width="110" height="110" as="geometry" />
        </mxCell>
        <mxCell id="qcdIiWinCXF8RQf-NoBJ-32" style="edgeStyle=orthogonalEdgeStyle;rounded=0;orthogonalLoop=1;jettySize=auto;html=1;" edge="1" parent="1" source="qcdIiWinCXF8RQf-NoBJ-30" target="Wd4Ua2FaX0Mv2LaocIGq-50">
          <mxGeometry relative="1" as="geometry" />
        </mxCell>
        <mxCell id="qcdIiWinCXF8RQf-NoBJ-30" value="Get player informations" style="rounded=0;whiteSpace=wrap;html=1;" vertex="1" parent="1">
          <mxGeometry x="130" y="900" width="120" height="60" as="geometry" />
        </mxCell>
        <mxCell id="qcdIiWinCXF8RQf-NoBJ-48" style="edgeStyle=orthogonalEdgeStyle;rounded=0;orthogonalLoop=1;jettySize=auto;html=1;" edge="1" parent="1" source="qcdIiWinCXF8RQf-NoBJ-46" target="qcdIiWinCXF8RQf-NoBJ-2">
          <mxGeometry relative="1" as="geometry" />
        </mxCell>
        <mxCell id="qcdIiWinCXF8RQf-NoBJ-49" style="edgeStyle=orthogonalEdgeStyle;rounded=0;orthogonalLoop=1;jettySize=auto;html=1;fillColor=#a20025;strokeColor=#6F0000;" edge="1" parent="1" source="qcdIiWinCXF8RQf-NoBJ-46" target="Wd4Ua2FaX0Mv2LaocIGq-37">
          <mxGeometry relative="1" as="geometry" />
        </mxCell>
        <mxCell id="qcdIiWinCXF8RQf-NoBJ-46" value="Launch and wait Gosumemory" style="rounded=0;whiteSpace=wrap;html=1;" vertex="1" parent="1">
          <mxGeometry x="130" y="1510" width="120" height="60" as="geometry" />
        </mxCell>
        <mxCell id="qcdIiWinCXF8RQf-NoBJ-54" style="edgeStyle=orthogonalEdgeStyle;rounded=0;orthogonalLoop=1;jettySize=auto;html=1;" edge="1" parent="1" source="qcdIiWinCXF8RQf-NoBJ-50" target="qcdIiWinCXF8RQf-NoBJ-53">
          <mxGeometry relative="1" as="geometry" />
        </mxCell>
        <mxCell id="qcdIiWinCXF8RQf-NoBJ-50" value="Send player informations to front" style="rounded=0;whiteSpace=wrap;html=1;" vertex="1" parent="1">
          <mxGeometry x="130" y="1910" width="120" height="60" as="geometry" />
        </mxCell>
        <mxCell id="qcdIiWinCXF8RQf-NoBJ-52" value="Open WS with Gosumemory" style="rounded=0;whiteSpace=wrap;html=1;" vertex="1" parent="1">
          <mxGeometry x="780" y="-120" width="120" height="60" as="geometry" />
        </mxCell>
        <mxCell id="qcdIiWinCXF8RQf-NoBJ-53" value="Open WS with Bella Fiora servers" style="rounded=0;whiteSpace=wrap;html=1;" vertex="1" parent="1">
          <mxGeometry x="130" y="2010" width="120" height="60" as="geometry" />
        </mxCell>
        <mxCell id="qcdIiWinCXF8RQf-NoBJ-58" style="edgeStyle=orthogonalEdgeStyle;rounded=0;orthogonalLoop=1;jettySize=auto;html=1;" edge="1" parent="1" source="qcdIiWinCXF8RQf-NoBJ-55" target="qcdIiWinCXF8RQf-NoBJ-57">
          <mxGeometry relative="1" as="geometry" />
        </mxCell>
        <mxCell id="qcdIiWinCXF8RQf-NoBJ-55" value="Client submitted a score" style="shape=process;whiteSpace=wrap;html=1;backgroundOutline=1;" vertex="1" parent="1">
          <mxGeometry x="-473" y="1630" width="120" height="60" as="geometry" />
        </mxCell>
        <mxCell id="qcdIiWinCXF8RQf-NoBJ-63" style="edgeStyle=orthogonalEdgeStyle;rounded=0;orthogonalLoop=1;jettySize=auto;html=1;" edge="1" parent="1" source="qcdIiWinCXF8RQf-NoBJ-56" target="qcdIiWinCXF8RQf-NoBJ-62">
          <mxGeometry relative="1" as="geometry" />
        </mxCell>
        <mxCell id="qcdIiWinCXF8RQf-NoBJ-56" value="New ranked beatmap" style="shape=process;whiteSpace=wrap;html=1;backgroundOutline=1;" vertex="1" parent="1">
          <mxGeometry x="-660" y="1630" width="120" height="60" as="geometry" />
        </mxCell>
        <mxCell id="qcdIiWinCXF8RQf-NoBJ-57" value="Update beatmaps.json" style="rounded=0;whiteSpace=wrap;html=1;" vertex="1" parent="1">
          <mxGeometry x="-473" y="1760" width="120" height="60" as="geometry" />
        </mxCell>
        <mxCell id="qcdIiWinCXF8RQf-NoBJ-62" value="Fire a notification" style="rounded=0;whiteSpace=wrap;html=1;" vertex="1" parent="1">
          <mxGeometry x="-660" y="1760" width="120" height="60" as="geometry" />
        </mxCell>
        <mxCell id="qcdIiWinCXF8RQf-NoBJ-66" style="edgeStyle=orthogonalEdgeStyle;rounded=0;orthogonalLoop=1;jettySize=auto;html=1;" edge="1" parent="1" source="qcdIiWinCXF8RQf-NoBJ-64" target="qcdIiWinCXF8RQf-NoBJ-65">
          <mxGeometry relative="1" as="geometry" />
        </mxCell>
        <mxCell id="qcdIiWinCXF8RQf-NoBJ-64" value="Bella Fiora update available" style="shape=process;whiteSpace=wrap;html=1;backgroundOutline=1;" vertex="1" parent="1">
          <mxGeometry x="-310" y="1630" width="120" height="60" as="geometry" />
        </mxCell>
        <mxCell id="qcdIiWinCXF8RQf-NoBJ-68" style="edgeStyle=orthogonalEdgeStyle;rounded=0;orthogonalLoop=1;jettySize=auto;html=1;" edge="1" parent="1" source="qcdIiWinCXF8RQf-NoBJ-65" target="qcdIiWinCXF8RQf-NoBJ-67">
          <mxGeometry relative="1" as="geometry" />
        </mxCell>
        <mxCell id="qcdIiWinCXF8RQf-NoBJ-65" value="Fire a notification" style="rounded=0;whiteSpace=wrap;html=1;" vertex="1" parent="1">
          <mxGeometry x="-310" y="1760" width="120" height="60" as="geometry" />
        </mxCell>
        <mxCell id="qcdIiWinCXF8RQf-NoBJ-67" value="Update changelog" style="rounded=0;whiteSpace=wrap;html=1;" vertex="1" parent="1">
          <mxGeometry x="-310" y="1870" width="120" height="60" as="geometry" />
        </mxCell>
        <mxCell id="qcdIiWinCXF8RQf-NoBJ-71" style="edgeStyle=orthogonalEdgeStyle;rounded=0;orthogonalLoop=1;jettySize=auto;html=1;" edge="1" parent="1" source="qcdIiWinCXF8RQf-NoBJ-69" target="qcdIiWinCXF8RQf-NoBJ-70">
          <mxGeometry relative="1" as="geometry" />
        </mxCell>
        <mxCell id="qcdIiWinCXF8RQf-NoBJ-69" value="osu!.db updated" style="shape=process;whiteSpace=wrap;html=1;backgroundOutline=1;" vertex="1" parent="1">
          <mxGeometry x="-810" y="1630" width="120" height="60" as="geometry" />
        </mxCell>
        <mxCell id="qcdIiWinCXF8RQf-NoBJ-70" value="Parse osu!.db and update beatmaps.json" style="rounded=0;whiteSpace=wrap;html=1;" vertex="1" parent="1">
          <mxGeometry x="-810" y="1760" width="120" height="60" as="geometry" />
        </mxCell>
      </root>
    </mxGraphModel>
  </diagram>
</mxfile>
